<svg width="342" height="349" viewBox="0 0 342 349" fill="none" xmlns="http://www.w3.org/2000/svg">
<path d="M342 306.696H0V306.93H342V306.696Z" fill="#EBEBEB"/>
<path d="M162.108 264.916H30.0345C28.9999 264.914 28.0082 264.349 27.2773 263.346C26.5463 262.343 26.1357 260.984 26.1357 259.567V5.30207C26.1447 3.89321 26.5593 2.5461 27.2893 1.55336C28.0193 0.560613 29.0058 0.00241346 30.0345 0H162.108C163.144 0 164.137 0.563544 164.87 1.56666C165.602 2.56977 166.014 3.93029 166.014 5.34891V259.567C166.014 260.986 165.602 262.346 164.87 263.35C164.137 264.353 163.144 264.916 162.108 264.916ZM30.0345 0.187353C29.0452 0.189835 28.0971 0.729798 27.3982 1.68873C26.6993 2.64765 26.3067 3.94719 26.3067 5.30207V259.567C26.3067 260.922 26.6993 262.222 27.3982 263.181C28.0971 264.14 29.0452 264.68 30.0345 264.682H162.108C163.098 264.68 164.047 264.14 164.747 263.181C165.447 262.223 165.841 260.923 165.843 259.567V5.30207C165.841 3.94632 165.447 2.64681 164.747 1.68815C164.047 0.729494 163.098 0.189829 162.108 0.187353H30.0345Z" fill="#EBEBEB"/>
<path d="M310.064 264.916H177.984C176.948 264.914 175.956 264.349 175.224 263.347C174.492 262.344 174.08 260.985 174.078 259.567V5.30207C174.089 3.89235 174.505 2.54525 175.236 1.55277C175.967 0.560285 176.954 0.00238714 177.984 0H310.064C311.092 0.00487537 312.077 0.564164 312.805 1.55664C313.534 2.54912 313.947 3.89482 313.956 5.30207V259.567C313.956 260.983 313.547 262.34 312.817 263.343C312.088 264.346 311.098 264.911 310.064 264.916ZM177.984 0.187353C176.994 0.189829 176.045 0.729494 175.345 1.68815C174.645 2.64681 174.251 3.94632 174.249 5.30207V259.567C174.251 260.923 174.645 262.223 175.345 263.181C176.045 264.14 176.994 264.68 177.984 264.682H310.064C311.054 264.68 312.003 264.14 312.703 263.181C313.403 262.223 313.797 260.923 313.799 259.567V5.30207C313.797 3.94632 313.403 2.64681 312.703 1.68815C312.003 0.729494 311.054 0.189829 310.064 0.187353H177.984Z" fill="#EBEBEB"/>
<path d="M307.732 321.768H289.948V322.002H307.732V321.768Z" fill="#EBEBEB"/>
<path d="M243.525 324.316H212.724V324.551H243.525V324.316Z" fill="#EBEBEB"/>
<path d="M289.264 313.075H247.684V313.309H289.264V313.075Z" fill="#EBEBEB"/>
<path d="M49.0361 314.649H35.8828V314.883H49.0361V314.649Z" fill="#EBEBEB"/>
<path d="M92.9487 314.649H55.1304V314.883H92.9487V314.649Z" fill="#EBEBEB"/>
<path d="M166.992 318.602H116.054V318.836H166.992V318.602Z" fill="#EBEBEB"/>
<path d="M258.956 301.9H264.428V163.212H258.956V301.9Z" fill="#F0F0F0"/>
<path d="M232.697 306.677H262.991V301.89H232.697V306.677Z" fill="#F0F0F0"/>
<path d="M258.963 163.203H231.247V301.89H258.963V163.203Z" fill="#F5F5F5"/>
<path d="M256.008 235.427H234.202V260.195H256.008V235.427Z" fill="#F0F0F0"/>
<path d="M256.008 267.839H234.202V292.607H256.008V267.839Z" fill="#F0F0F0"/>
<path d="M242.198 249.506H248.005C248.451 249.506 248.812 249.012 248.812 248.401V247.211C248.812 246.601 248.451 246.106 248.005 246.106H242.198C241.752 246.106 241.391 246.601 241.391 247.211V248.401C241.391 249.012 241.752 249.506 242.198 249.506Z" fill="#F5F5F5"/>
<path d="M242.198 281.918H248.005C248.451 281.918 248.812 281.423 248.812 280.813V279.623C248.812 279.013 248.451 278.518 248.005 278.518H242.198C241.752 278.518 241.391 279.013 241.391 279.623V280.813C241.391 281.423 241.752 281.918 242.198 281.918Z" fill="#F5F5F5"/>
<path d="M256.008 170.856H234.202V195.624H256.008V170.856Z" fill="#F0F0F0"/>
<path d="M256.008 203.006H234.202V227.774H256.008V203.006Z" fill="#F0F0F0"/>
<path d="M242.198 184.935H248.005C248.451 184.935 248.812 184.441 248.812 183.83V182.64C248.812 182.03 248.451 181.535 248.005 181.535H242.198C241.752 181.535 241.391 182.03 241.391 182.64V183.83C241.391 184.441 241.752 184.935 242.198 184.935Z" fill="#F5F5F5"/>
<path d="M242.198 217.095H248.005C248.451 217.095 248.812 216.6 248.812 215.989V214.799C248.812 214.189 248.451 213.694 248.005 213.694H242.198C241.752 213.694 241.391 214.189 241.391 214.799V215.989C241.391 216.6 241.752 217.095 242.198 217.095Z" fill="#F5F5F5"/>
<path d="M289.291 301.9H305.707V163.212H289.291V301.9Z" fill="#F0F0F0"/>
<path d="M263.012 306.677H304.018V301.89H263.012V306.677Z" fill="#F0F0F0"/>
<path d="M289.291 163.203H261.575V301.89H289.291V163.203Z" fill="#F5F5F5"/>
<path d="M286.336 235.427H264.53V260.195H286.336V235.427Z" fill="#F0F0F0"/>
<path d="M286.336 267.839H264.53V292.607H286.336V267.839Z" fill="#F0F0F0"/>
<path d="M272.526 249.506H278.334C278.779 249.506 279.141 249.012 279.141 248.401V247.211C279.141 246.601 278.779 246.106 278.334 246.106H272.526C272.081 246.106 271.719 246.601 271.719 247.211V248.401C271.719 249.012 272.081 249.506 272.526 249.506Z" fill="#F5F5F5"/>
<path d="M272.526 281.918H278.334C278.779 281.918 279.141 281.423 279.141 280.813V279.623C279.141 279.013 278.779 278.518 278.334 278.518H272.526C272.081 278.518 271.719 279.013 271.719 279.623V280.813C271.719 281.423 272.081 281.918 272.526 281.918Z" fill="#F5F5F5"/>
<path d="M286.336 170.856H264.53V195.624H286.336V170.856Z" fill="#F0F0F0"/>
<path d="M286.336 203.006H264.53V227.774H286.336V203.006Z" fill="#F0F0F0"/>
<path d="M272.526 184.935H278.334C278.779 184.935 279.141 184.441 279.141 183.83V182.64C279.141 182.03 278.779 181.535 278.334 181.535H272.526C272.081 181.535 271.719 182.03 271.719 182.64V183.83C271.719 184.441 272.081 184.935 272.526 184.935Z" fill="#F5F5F5"/>
<path d="M272.526 217.095H278.334C278.779 217.095 279.141 216.6 279.141 215.989V214.799C279.141 214.189 278.779 213.694 278.334 213.694H272.526C272.081 213.694 271.719 214.189 271.719 214.799V215.989C271.719 216.6 272.081 217.095 272.526 217.095Z" fill="#F5F5F5"/>
<path d="M200.159 134.257L292.301 134.257V23.4753L200.159 23.4753V134.257Z" fill="#E6E6E6"/>
<path d="M190.282 19.1661H298.265C298.508 19.1661 298.741 19.2984 298.913 19.5338C299.085 19.7692 299.181 20.0885 299.181 20.4214C299.18 20.7527 299.082 21.0695 298.911 21.3029C298.739 21.5363 298.507 21.6673 298.265 21.6673H190.282C190.041 21.6648 189.811 21.5328 189.641 21.2996C189.47 21.0665 189.374 20.751 189.372 20.4214C189.372 20.0901 189.468 19.7722 189.638 19.5371C189.809 19.3019 190.04 19.1686 190.282 19.1661Z" fill="#E6E6E6"/>
<path d="M196.254 134.257L290.481 134.257V23.4753L196.254 23.4753V134.257Z" fill="#F0F0F0"/>
<path d="M200.159 134.257H292.3V137.807H197.464L200.159 134.257Z" fill="#E6E6E6"/>
<path d="M189.735 134.257H283.963L281.268 137.807H187.04L189.735 134.257Z" fill="#F0F0F0"/>
<path d="M285.002 126.763V30.9694L201.725 30.9694V126.763H285.002Z" fill="#FAFAFA"/>
<path d="M266.096 126.763L233.969 30.9694H218.805L250.932 126.763H266.096Z" fill="white"/>
<path d="M247.676 126.763L215.549 30.9694H209.632L241.76 126.763H247.676Z" fill="white"/>
<path d="M202.416 126.763V30.9694H201.718V126.763H202.416Z" fill="#E6E6E6"/>
<g opacity="0.4">
<path d="M284.934 108.337H294.353V16.918H284.934V108.337Z" fill="#F0F0F0"/>
<path d="M281.268 108.337H288.607V16.918H281.268V108.337Z" fill="#E6E6E6"/>
<path d="M275.522 108.337H284.941V16.918H275.522V108.337Z" fill="#F0F0F0"/>
<path d="M271.849 108.337H279.188V16.918H271.849V108.337Z" fill="#E6E6E6"/>
<path d="M266.097 108.337H275.516V16.918H266.097V108.337Z" fill="#F0F0F0"/>
</g>
<g opacity="0.4">
<path d="M205.227 108.337H210.658V16.918H205.227V108.337Z" fill="#F0F0F0"/>
<path d="M203.114 108.337H207.341V16.918H203.114V108.337Z" fill="#E6E6E6"/>
<path d="M199.796 108.337H205.227V16.918H199.796V108.337Z" fill="#F0F0F0"/>
<path d="M197.69 108.337H201.917V16.918H197.69V108.337Z" fill="#E6E6E6"/>
<path d="M194.365 108.337H199.796V16.918H194.365V108.337Z" fill="#F0F0F0"/>
</g>
<path d="M112.326 90.5849H125.363L123.824 45.3018H112.326V90.5849Z" fill="#F5F5F5"/>
<path d="M132.73 93.0299L135.541 113.142H132.73L115.486 93.0299H132.73Z" fill="#F5F5F5"/>
<path d="M135.541 93.0299V113.142L118.298 93.0299H135.541Z" fill="#E6E6E6"/>
<path d="M65.103 93.0299L67.9143 113.142H65.103L47.8594 93.0299H65.103Z" fill="#F5F5F5"/>
<path d="M67.9145 93.0299V113.142L50.6709 93.0299H67.9145Z" fill="#E6E6E6"/>
<path d="M148.203 90.6505H129.447V93.5544H148.203V90.6505Z" fill="#E6E6E6"/>
<path d="M36.2044 93.5544L129.447 93.5544V90.6504L36.2044 90.6504V93.5544Z" fill="#F5F5F5"/>
<path d="M93.168 90.5848H121.157L124.618 35.7093H96.629L93.168 90.5848Z" fill="#E6E6E6"/>
<path d="M91.7178 90.5848H119.707L123.168 35.7093H95.1788L91.7178 90.5848Z" fill="#F0F0F0"/>
<path d="M117.36 84.5052L120.527 41.7795H97.5312L94.3643 84.5052H117.36Z" fill="white"/>
<path d="M80.6367 90.5849H89.6176L88.5574 59.4001H80.6367V90.5849Z" fill="#E0E0E0"/>
<path d="M67.4492 90.5849H86.7175L89.1047 52.7959H69.8295L67.4492 90.5849Z" fill="#F0F0F0"/>
<path d="M66.4507 90.5849H85.7258L88.1061 52.7959H68.831L66.4507 90.5849Z" fill="#F5F5F5"/>
<path d="M84.1046 86.3976L86.2797 56.9833H70.452L68.27 86.3976H84.1046Z" fill="#E0E0E0"/>
<path d="M179.454 169.966C179.518 171.013 179.353 172.063 178.981 172.982C178.609 173.902 178.047 174.649 177.364 175.13C176.682 175.611 175.911 175.804 175.148 175.685C174.386 175.565 173.667 175.139 173.081 174.459C172.496 173.779 172.071 172.877 171.86 171.867C171.649 170.856 171.662 169.783 171.897 168.782C172.132 167.782 172.578 166.899 173.179 166.246C173.781 165.593 174.51 165.199 175.275 165.114C175.782 165.056 176.292 165.136 176.777 165.348C177.262 165.561 177.711 165.903 178.099 166.353C178.487 166.804 178.807 167.355 179.039 167.975C179.272 168.595 179.413 169.271 179.454 169.966Z" fill="#E0E0E0"/>
<path d="M186.657 172.739C186.721 173.786 186.556 174.836 186.184 175.755C185.812 176.674 185.249 177.422 184.567 177.903C183.885 178.384 183.113 178.577 182.351 178.457C181.589 178.338 180.869 177.911 180.284 177.232C179.699 176.552 179.274 175.65 179.063 174.639C178.852 173.629 178.865 172.555 179.1 171.555C179.335 170.554 179.781 169.672 180.382 169.019C180.983 168.366 181.713 167.972 182.477 167.886C183.501 167.772 184.516 168.219 185.3 169.129C186.083 170.039 186.571 171.337 186.657 172.739Z" fill="#E0E0E0"/>
<path d="M191.862 169.554C191.924 170.601 191.759 171.65 191.386 172.568C191.013 173.486 190.449 174.232 189.767 174.712C189.084 175.192 188.313 175.383 187.551 175.263C186.789 175.142 186.07 174.715 185.486 174.034C184.901 173.354 184.477 172.452 184.267 171.442C184.056 170.431 184.07 169.358 184.305 168.358C184.54 167.358 184.987 166.476 185.588 165.823C186.189 165.171 186.918 164.777 187.683 164.692C188.707 164.581 189.722 165.03 190.505 165.941C191.289 166.852 191.776 168.151 191.862 169.554Z" fill="#E0E0E0"/>
<path d="M197.355 171.54C197.416 172.584 197.249 173.63 196.876 174.545C196.503 175.461 195.941 176.204 195.26 176.681C194.579 177.159 193.809 177.349 193.049 177.229C192.289 177.108 191.572 176.681 190.989 176.003C190.406 175.324 189.983 174.424 189.773 173.417C189.563 172.409 189.575 171.339 189.809 170.341C190.043 169.343 190.488 168.463 191.087 167.811C191.686 167.159 192.413 166.765 193.175 166.678C193.683 166.62 194.194 166.7 194.679 166.914C195.164 167.127 195.614 167.469 196.002 167.921C196.39 168.372 196.709 168.925 196.942 169.546C197.174 170.167 197.314 170.844 197.355 171.54Z" fill="#E0E0E0"/>
<path d="M202.286 172.364C202.286 172.364 201.835 187.109 184.543 187.109C167.252 187.109 166.759 172.364 166.759 172.364H202.286Z" fill="#F0F0F0"/>
<path d="M40.9582 306.696H47.2441L47.2441 187.137H40.9582L40.9582 306.696Z" fill="#E6E6E6"/>
<path d="M39.282 306.696H42.9824L42.9824 187.137H39.282L39.282 306.696Z" fill="#F0F0F0"/>
<path d="M127.367 187.137H38.1328V196.102H127.367V187.137Z" fill="#F0F0F0"/>
<path d="M211.876 306.696H218.162V187.137H211.876V306.696Z" fill="#E6E6E6"/>
<path d="M210.699 306.696H214.399V187.137H210.699V306.696Z" fill="#F0F0F0"/>
<path d="M219.283 187.137H130.049V196.102H219.283V187.137Z" fill="#E6E6E6"/>
<path d="M127.894 306.696H134.18V187.137H127.894L127.894 306.696Z" fill="#E6E6E6"/>
<path d="M126.219 306.696H129.919V187.137H126.219L126.219 306.696Z" fill="#F0F0F0"/>
<path d="M148.524 147.371H101.937L93.6328 185.048H140.227L148.524 147.371Z" fill="#E6E6E6"/>
<path d="M140.227 185.048L140.042 187.137H93.4482L93.6329 185.048H140.227Z" fill="#E6E6E6"/>
<path d="M147.094 147.371H100.5L92.2031 185.048H138.79L147.094 147.371Z" fill="#F0F0F0"/>
<path d="M137.881 183.334L145.418 149.095H101.417L93.8721 183.334H137.881Z" fill="white"/>
<path d="M126.656 185.048L126.465 187.137H75.1577L75.3424 185.048H126.656Z" fill="#F0F0F0"/>
<path d="M171 349C244.244 349 303.62 344.252 303.62 338.396C303.62 332.539 244.244 327.792 171 327.792C97.7552 327.792 38.3789 332.539 38.3789 338.396C38.3789 344.252 97.7552 349 171 349Z" fill="#F5F5F5"/>
<path d="M258.244 50.7256H179.522C176.822 50.7864 174.236 52.2233 172.268 54.7557C170.3 57.2881 169.092 60.7342 168.879 64.421L156.636 322.555C156.536 324.313 156.705 326.08 157.131 327.743C157.557 329.407 158.231 330.931 159.11 332.218C159.99 333.506 161.055 334.528 162.239 335.221C163.423 335.913 164.699 336.261 165.986 336.241H244.735C247.434 336.183 250.021 334.748 251.989 332.217C253.957 329.686 255.166 326.241 255.378 322.555L264.161 137.02C264.534 136.842 264.861 136.52 265.104 136.093C265.347 135.666 265.494 135.152 265.529 134.613L267.102 101.414C267.129 100.898 267.033 100.384 266.828 99.9496C266.624 99.5152 266.321 99.1841 265.966 99.0063L267.601 64.421C267.701 62.6621 267.532 60.8941 267.106 59.2293C266.68 57.5646 266.005 56.0396 265.125 54.7514C264.245 53.4632 263.178 52.44 261.994 51.7469C260.809 51.0538 259.532 50.706 258.244 50.7256Z" fill="#FF7F50"/>
<path d="M162.505 117.564H164.05C164.529 117.552 164.987 117.297 165.336 116.849C165.685 116.4 165.899 115.79 165.938 115.137L166.622 101.273C166.639 100.961 166.609 100.648 166.533 100.353C166.457 100.058 166.337 99.7879 166.181 99.5598C166.024 99.3317 165.835 99.1505 165.625 99.0279C165.415 98.9052 165.189 98.8436 164.96 98.8471H163.421C162.942 98.8567 162.483 99.1108 162.134 99.5596C161.785 100.008 161.571 100.619 161.533 101.273L160.849 115.137C160.832 115.448 160.863 115.761 160.938 116.055C161.014 116.35 161.133 116.619 161.289 116.847C161.444 117.075 161.633 117.257 161.842 117.38C162.051 117.503 162.277 117.566 162.505 117.564Z" fill="#FF7F50"/>
<path d="M161.335 142.313H162.874C163.354 142.301 163.814 142.045 164.164 141.595C164.514 141.145 164.73 140.533 164.769 139.877L165.453 126.022C165.47 125.711 165.439 125.397 165.363 125.102C165.287 124.807 165.167 124.537 165.011 124.309C164.855 124.081 164.665 123.9 164.455 123.777C164.245 123.654 164.019 123.593 163.79 123.596H162.251C161.772 123.606 161.312 123.859 160.962 124.308C160.612 124.757 160.396 125.368 160.357 126.022L159.673 139.877C159.654 140.19 159.683 140.505 159.758 140.802C159.833 141.099 159.953 141.37 160.109 141.6C160.266 141.829 160.456 142.011 160.667 142.134C160.878 142.257 161.106 142.318 161.335 142.313Z" fill="#FF7F50"/>
<path d="M240.549 336.241H161.827C160.54 336.261 159.264 335.913 158.08 335.221C156.897 334.528 155.831 333.506 154.952 332.218C154.072 330.931 153.398 329.407 152.972 327.743C152.546 326.08 152.377 324.313 152.477 322.555L164.693 64.4211C164.907 60.7334 166.117 57.2872 168.086 54.755C170.055 52.2228 172.642 50.7862 175.343 50.7256H254.058C255.345 50.7073 256.622 51.0561 257.805 51.7498C258.989 52.4434 260.055 53.4668 260.934 54.7549C261.813 56.0429 262.488 57.5675 262.914 59.2316C263.339 60.8957 263.508 62.663 263.408 64.4211L251.192 322.555C250.98 326.241 249.771 329.686 247.803 332.217C245.835 334.748 243.248 336.183 240.549 336.241Z" fill="#263238"/>
<path opacity="0.2" d="M206.539 325.265C209.296 321.609 209.504 315.776 207.003 312.237C204.501 308.699 200.238 308.794 197.48 312.45C194.723 316.106 194.515 321.938 197.016 325.477C199.518 329.016 203.781 328.921 206.539 325.265Z" fill="white"/>
<path d="M247.663 302.733H158.175C157.87 302.733 157.569 302.647 157.289 302.481C157.01 302.314 156.758 302.072 156.55 301.767C156.341 301.462 156.181 301.102 156.078 300.71C155.975 300.317 155.932 299.899 155.952 299.483L166.424 78.107C166.47 77.3425 166.724 76.6295 167.136 76.1091C167.548 75.5887 168.087 75.2988 168.647 75.2968H258.141C258.446 75.2972 258.748 75.3831 259.027 75.5493C259.307 75.7155 259.558 75.9584 259.767 76.263C259.975 76.5676 260.136 76.9275 260.238 77.3204C260.341 77.7132 260.384 78.1308 260.364 78.5473L249.886 299.876C249.849 300.65 249.599 301.376 249.186 301.906C248.774 302.437 248.229 302.732 247.663 302.733Z" fill="white"/>
<path opacity="0.2" d="M222.694 215.479C232.704 202.208 233.457 181.036 224.377 168.189C215.296 155.343 199.82 155.687 189.81 168.958C179.8 182.229 179.047 203.401 188.127 216.248C197.208 229.094 212.684 228.75 222.694 215.479Z" fill="#FF7F50"/>
<path opacity="0.2" d="M203.832 243.802C183.058 243.802 167.251 220.654 168.599 192.205C169.946 163.755 187.935 140.608 208.715 140.608C229.495 140.608 245.296 163.755 243.948 192.205C242.601 220.654 224.584 243.802 203.832 243.802ZM208.62 141.545C188.223 141.545 170.555 164.27 169.235 192.205C167.915 220.139 183.428 242.865 203.825 242.865C224.222 242.865 241.889 220.139 243.216 192.205C244.543 164.27 229.044 141.545 208.62 141.545Z" fill="#407BFF"/>
<path d="M200.411 208.42L198.359 202.996C193.913 191.184 183.674 180.626 180.097 177.554L183.476 170.631C187.71 174.266 196.171 183.268 201.479 193.966C211.294 178.041 225.165 161.638 243.736 143.943L246.903 150.5C227.067 169.404 212.792 186.687 203.298 203.343L200.411 208.42Z" fill="#FF7F50"/>
<path opacity="0.2" d="M199.442 65.4613C200.557 63.9824 200.639 61.6203 199.625 60.1854C198.611 58.7506 196.884 58.7864 195.769 60.2653C194.653 61.7443 194.571 64.1064 195.585 65.5412C196.6 66.976 198.326 66.9403 199.442 65.4613Z" fill="white"/>
<path opacity="0.2" d="M207.19 59.1282H229.824C230.176 59.1226 230.524 59.2178 230.848 59.4076C231.171 59.5975 231.462 59.8778 231.701 60.2306C231.941 60.5834 232.124 61.001 232.239 61.4564C232.354 61.9119 232.398 62.3952 232.368 62.8753C232.312 63.8822 231.984 64.8243 231.447 65.5172C230.911 66.2102 230.205 66.6043 229.468 66.6223H206.841C206.49 66.6264 206.141 66.5303 205.818 66.34C205.495 66.1498 205.204 65.8696 204.964 65.5172C204.724 65.1649 204.54 64.7481 204.424 64.2933C204.308 63.8385 204.262 63.3556 204.29 62.8753C204.346 61.8684 204.674 60.9263 205.211 60.2333C205.747 59.5403 206.453 59.1463 207.19 59.1282Z" fill="white"/>
<path d="M122.942 128.337C121.786 129.957 120.548 131.746 119.406 133.526C118.263 135.306 117.121 137.133 116.047 139.006C114.973 140.88 113.995 142.753 112.983 144.73L112.299 146.201L111.615 147.69C111.389 148.187 111.184 148.692 110.986 149.208L110.439 150.585C110.215 151.372 110.088 152.204 110.062 153.048C110.008 154.134 110.008 155.223 110.062 156.308C110.196 158.65 110.425 160.98 110.746 163.287C111.047 165.648 111.43 168.018 111.834 170.378C112.237 172.739 112.682 175.128 113.133 177.451L110.603 178.753C109.048 174.171 107.744 169.437 106.704 164.589C106.176 162.091 105.771 159.546 105.493 156.973C105.355 155.601 105.284 154.218 105.281 152.833C105.265 151.201 105.467 149.579 105.876 148.046C106.034 147.521 106.116 147.315 106.225 146.997L106.54 146.107C106.745 145.517 106.957 144.927 107.224 144.355L107.908 142.632L108.633 140.955C109.599 138.746 110.652 136.61 111.786 134.557C112.908 132.505 114.071 130.51 115.295 128.58C116.519 126.65 117.757 124.833 119.18 122.96L122.942 128.337Z" fill="#B55B52"/>
<path d="M123.236 117.095C119.529 117.32 116.006 125.751 116.006 125.751L120.904 139.437C120.904 139.437 127.539 131.868 127.621 124.449C127.675 119.587 126.882 116.861 123.236 117.095Z" fill="#407BFF"/>
<path opacity="0.7" d="M123.236 117.095C119.529 117.32 116.006 125.751 116.006 125.751L120.904 139.437C120.904 139.437 127.539 131.868 127.621 124.449C127.675 119.587 126.882 116.861 123.236 117.095Z" fill="white"/>
<path opacity="0.2" d="M124.118 126.931C123.038 129.17 122.518 134.978 122.354 137.564C123.986 135.39 125.369 132.892 126.458 130.154C125.726 127.653 124.83 125.461 124.118 126.931Z" fill="black"/>
<path d="M112.402 176.027L116.909 177.901L113.906 182.06C113.906 182.06 110.657 180.683 110.206 177.657L112.402 176.027Z" fill="#B55B52"/>
<path d="M119.638 182.613L118.879 186.594L113.906 182.022L116.909 177.863L119.638 182.613Z" fill="#B55B52"/>
<path d="M149.296 100.842C149.153 101.395 149.255 101.957 149.522 102.088C149.789 102.22 150.117 101.892 150.254 101.339C150.391 100.786 150.295 100.215 150.028 100.084C149.762 99.9525 149.44 100.28 149.296 100.842Z" fill="#263238"/>
<path d="M149.905 100.056L150.979 100.177C150.979 100.177 150.213 100.955 149.905 100.056Z" fill="#263238"/>
<path d="M149.502 101.554C149.543 103.012 149.727 104.455 150.049 105.845C149.788 105.938 149.515 105.953 149.25 105.889C148.984 105.824 148.732 105.681 148.51 105.47L149.502 101.554Z" fill="#A02724"/>
<path d="M150.624 98.6785C150.575 98.6693 150.529 98.6402 150.493 98.5951C150.456 98.5501 150.43 98.491 150.419 98.4256C150.344 98.0021 150.199 97.6076 149.997 97.2716C149.794 96.9357 149.538 96.6672 149.249 96.4865C149.187 96.4548 149.136 96.3909 149.108 96.3085C149.08 96.2262 149.076 96.132 149.098 96.0462C149.109 96.0032 149.126 95.9637 149.148 95.9299C149.17 95.8961 149.197 95.8687 149.227 95.8495C149.257 95.8302 149.29 95.8195 149.323 95.8179C149.356 95.8163 149.389 95.8238 149.42 95.8401C149.792 96.0616 150.121 96.4001 150.38 96.8281C150.639 97.2561 150.821 97.7617 150.911 98.3038C150.919 98.3481 150.921 98.3942 150.916 98.4394C150.911 98.4846 150.9 98.528 150.883 98.5672C150.866 98.6064 150.843 98.6405 150.816 98.6676C150.789 98.6948 150.759 98.7144 150.726 98.7254L150.624 98.6785Z" fill="#263238"/>
<path d="M135.247 103.194C135.343 107.625 135.015 115.596 132.511 117.854C132.511 117.854 132.846 122.407 138.667 123.952C145.063 125.648 142.245 120.44 142.245 120.44C138.893 118.379 139.406 114.875 140.411 111.728L135.247 103.194Z" fill="#B55B52"/>
<path d="M154.256 133.517C154.831 135.662 155.487 137.985 156.185 140.186C156.883 142.388 157.553 144.617 158.367 146.744C159.181 148.87 159.974 151.006 160.836 153.076C161.281 154.097 161.725 155.118 162.204 156.093C162.437 156.599 162.676 157.086 162.929 157.545L163.299 158.257L163.483 158.622L163.579 158.8L163.641 158.894C164.085 159.587 164.596 160.195 165.159 160.702C165.837 161.336 166.54 161.917 167.266 162.444C168.764 163.549 170.371 164.552 172.006 165.498C173.641 166.444 175.31 167.371 176.999 168.186C178.688 169.001 180.419 169.863 182.081 170.659L181.445 174.266C177.779 173.427 174.158 172.259 170.604 170.772C168.784 170.012 166.998 169.108 165.255 168.064C164.341 167.509 163.45 166.883 162.587 166.191C161.586 165.409 160.679 164.42 159.899 163.259L159.735 163.006L159.619 162.809L159.393 162.425L158.941 161.638C158.634 161.123 158.339 160.598 158.066 160.065C157.484 159.006 156.951 157.919 156.424 156.823C155.386 154.649 154.43 152.404 153.558 150.097C152.69 147.802 151.869 145.489 151.116 143.128C150.364 140.767 149.687 138.444 149.064 135.859L154.256 133.517Z" fill="#B55B52"/>
<path d="M181.178 170.641L185.213 168.505L185.015 174.884C185.015 174.884 181.746 176.074 180.227 173.816L181.178 170.641Z" fill="#B55B52"/>
<path d="M188.257 170.697L189.639 174.772L185.015 174.884L185.214 168.505L188.257 170.697Z" fill="#B55B52"/>
<path d="M121.328 330.574L126.67 331.117L128.257 314.321L122.915 313.778L121.328 330.574Z" fill="#B55B52"/>
<path d="M79.0156 292.579L82.504 298.256L92.8598 289.141L89.3714 283.464L79.0156 292.579Z" fill="#B55B52"/>
<path d="M84.1319 297.525L81.3207 290.125C81.2759 289.996 81.1982 289.894 81.1024 289.839C81.0066 289.784 80.8992 289.779 80.8008 289.825L76.3343 291.942C76.2222 292.004 76.121 292.097 76.0372 292.216C75.9534 292.336 75.8891 292.478 75.8484 292.634C75.8076 292.789 75.7915 292.955 75.801 293.12C75.8105 293.285 75.8454 293.445 75.9034 293.591C76.9157 296.148 77.4971 297.338 78.7283 300.569C79.4944 302.565 80.4588 305.6 81.5053 308.363C82.5519 311.127 84.5491 309.9 84.2892 308.616C83.1127 302.893 83.8925 301.31 84.2892 298.827C84.3456 298.381 84.2902 297.922 84.1319 297.525Z" fill="#263238"/>
<path d="M127.005 330.078H121C120.896 330.076 120.796 330.125 120.717 330.216C120.638 330.307 120.585 330.434 120.569 330.574L119.762 337.075C119.745 337.237 119.754 337.402 119.788 337.559C119.822 337.716 119.88 337.861 119.958 337.985C120.037 338.108 120.134 338.207 120.243 338.275C120.352 338.343 120.47 338.378 120.589 338.377C122.689 338.33 123.695 338.162 126.335 338.162C127.963 338.162 131.314 338.396 133.558 338.396C135.801 338.396 135.979 335.361 135.049 335.08C130.883 333.853 129.269 332.148 127.887 330.527C127.644 330.234 127.33 330.074 127.005 330.078Z" fill="#263238"/>
<path opacity="0.2" d="M128.257 314.321L127.374 323.661L122.053 322.93L122.915 313.787L128.257 314.321Z" fill="black"/>
<path opacity="0.2" d="M89.3713 283.464L92.8597 289.141L88.571 292.916L84.9526 287.352L89.3713 283.464Z" fill="black"/>
<path d="M121.752 161.638L143.175 167.324C153.298 126.51 150.877 125.17 150.877 125.17C149.303 124.006 147.679 122.973 146.013 122.079L145.719 121.929C144.351 121.245 144.064 121.142 142.231 120.411C139.071 119.39 136.136 118.538 132.504 117.835L131.82 117.704C131.136 117.592 130.507 117.498 129.878 117.414C129.454 117.348 129.03 117.311 128.626 117.273L127.258 117.17C124.919 117.011 123.243 117.058 123.243 117.058C124.42 142.547 123.524 149.882 121.752 161.638Z" fill="#407BFF"/>
<path opacity="0.7" d="M121.752 161.638L143.175 167.324C153.298 126.51 150.877 125.17 150.877 125.17C149.303 124.006 147.679 122.973 146.013 122.079L145.719 121.929C144.351 121.245 144.064 121.142 142.231 120.411C139.071 119.39 136.136 118.538 132.504 117.835L131.82 117.704C131.136 117.592 130.507 117.498 129.878 117.414C129.454 117.348 129.03 117.311 128.626 117.273L127.258 117.17C124.919 117.011 123.243 117.058 123.243 117.058C124.42 142.547 123.524 149.882 121.752 161.638Z" fill="white"/>
<path opacity="0.2" d="M147.799 134.697L145.863 134.266C145.863 137.76 146.835 143.756 147.778 147.568C148.579 143.821 149.201 140.739 149.673 138.144L147.799 134.697Z" fill="black"/>
<path d="M150.131 124.674C153.298 126.06 155.603 134.641 156.465 138.341L150.309 148.243C150.309 148.243 144.003 135.831 145.008 131.98C145.993 127.971 148.599 123.99 150.131 124.674Z" fill="#407BFF"/>
<path opacity="0.7" d="M150.131 124.674C153.298 126.06 155.603 134.641 156.465 138.341L150.309 148.243C150.309 148.243 144.003 135.831 145.008 131.98C145.993 127.971 148.599 123.99 150.131 124.674Z" fill="white"/>
<path d="M152.183 92.9925C151.547 95.5498 148.763 96.5709 145.993 95.2875C143.223 94.0042 141.472 90.866 142.108 88.3086C142.744 85.7513 145.528 84.7302 148.264 86.0229C151 87.3157 152.813 90.4351 152.183 92.9925Z" fill="#263238"/>
<path d="M136.116 92.2899C134.693 99.2594 133.982 102.163 135.61 106.96C138.058 114.182 144.611 115.316 147.525 109.124C150.145 103.559 152.033 93.0955 147.847 87.859C146.963 86.6897 145.872 85.8562 144.682 85.4405C143.491 85.0249 142.242 85.0416 141.058 85.4889C139.873 85.9363 138.795 86.7989 137.928 87.9915C137.061 89.1842 136.437 90.6657 136.116 92.2899Z" fill="#B55B52"/>
<path d="M144.064 84.1493C142.012 85.7606 137.655 75.6717 132.245 84.1493C128.373 90.2289 130.842 99.1375 130.842 99.1375C130.842 99.1375 127.758 91.709 125.295 95.3343C122.08 100.018 125.405 116.777 136.007 115.625C146.609 114.472 145.583 102.688 145.583 102.688C145.583 102.688 150.549 95.7746 150.302 89.5732C150.118 84.9269 147.484 81.4983 144.064 84.1493Z" fill="#263238"/>
<path d="M145.35 98.2758C145.085 99.5727 145.119 100.95 145.446 102.22C145.883 104.009 146.889 104.018 147.422 102.782C147.956 101.545 148.25 99.3999 147.491 97.9573C146.732 96.5147 145.692 96.8425 145.35 98.2758Z" fill="#B55B52"/>
<path d="M137.484 165.807C137.484 165.807 135.199 176.655 132.265 190.968C130.316 200.505 128.072 211.577 126.027 222.003C124.857 227.971 123.756 233.722 122.805 238.865C117.429 267.952 90.6164 292.954 90.6164 292.954L85.4248 285.132C85.4248 285.132 103.441 264.354 108.681 237.216C119.262 182.125 113.311 172.833 121.745 161.638L137.484 165.807Z" fill="#263238"/>
<path opacity="0.2" d="M135.172 175.531C134.378 179.737 133.38 185.048 132.278 190.987C130.329 200.523 128.086 211.596 126.04 222.022C125.165 208.72 124.672 184.261 131.82 176.655C133.229 175.175 134.344 174.865 135.172 175.531Z" fill="black"/>
<path d="M91.061 294.078L84.5767 284.307L86.5397 281.61L94.4947 291.876L91.061 294.078Z" fill="#407BFF"/>
<path opacity="0.7" d="M91.061 294.078L84.5767 284.307L86.5397 281.61L94.4947 291.876L91.061 294.078Z" fill="white"/>
<path d="M85.11 301.497C85.0447 301.495 84.9801 301.479 84.9184 301.45C84.2823 301.131 83.8788 299.464 83.6941 298.499C83.6881 298.466 83.6895 298.432 83.698 298.4C83.7066 298.368 83.7219 298.341 83.742 298.321C83.7618 298.301 83.7858 298.291 83.8104 298.291C83.8349 298.291 83.8589 298.301 83.8788 298.321C84.0703 298.471 85.7529 299.82 85.7871 300.766C85.7928 300.869 85.778 300.972 85.7443 301.065C85.7105 301.157 85.6592 301.235 85.5956 301.291C85.4558 301.434 85.2843 301.507 85.11 301.497ZM84.0224 298.827C84.3028 300.092 84.6585 300.944 85.0074 301.113C85.0819 301.144 85.1611 301.15 85.2376 301.129C85.3141 301.107 85.3855 301.06 85.4451 300.991C85.534 300.907 85.5409 300.822 85.534 300.766C85.4998 300.279 84.6859 299.398 84.0224 298.827Z" fill="#407BFF"/>
<path d="M142.833 167.324C142.833 167.324 144.201 225.235 141.178 247.052C138.072 269.787 128.592 321.309 128.592 321.309L120.89 319.951C120.89 319.951 125.76 267.811 127.833 245.272C130.083 220.692 127.149 163.128 127.149 163.128L142.833 167.324Z" fill="#263238"/>
<path d="M130.247 321.956L119.269 320.017L119.399 316.438L131.348 317.15L130.247 321.956Z" fill="#407BFF"/>
<path opacity="0.7" d="M130.247 321.956L119.269 320.017L119.399 316.438L131.348 317.15L130.247 321.956Z" fill="white"/>
<path d="M85.3701 299.23C84.8019 299.193 84.2475 298.978 83.7491 298.602C83.7304 298.587 83.715 298.564 83.7042 298.538C83.6934 298.512 83.6877 298.483 83.6875 298.452C83.6905 298.422 83.6982 298.393 83.71 298.367C83.7218 298.342 83.7374 298.32 83.7559 298.303C83.8175 298.303 85.1239 297.319 85.8763 297.703C85.9706 297.75 86.0563 297.824 86.1272 297.922C86.1981 298.019 86.2526 298.136 86.2867 298.265C86.3317 298.39 86.3446 298.531 86.3235 298.667C86.3024 298.803 86.2485 298.926 86.1704 299.015C85.9275 299.202 85.6469 299.278 85.3701 299.23ZM84.0911 298.471C84.6861 298.846 85.7258 299.052 86.0131 298.743C86.061 298.687 86.1089 298.602 86.0131 298.387C85.993 298.304 85.959 298.229 85.9139 298.167C85.8687 298.105 85.8137 298.059 85.7532 298.031C85.1793 297.943 84.5995 298.096 84.0911 298.471Z" fill="#407BFF"/>
<path d="M128.989 331.352C128.426 331.335 127.865 331.247 127.313 331.089C127.287 331.085 127.262 331.069 127.244 331.044C127.225 331.018 127.213 330.985 127.21 330.949C127.206 330.913 127.211 330.876 127.223 330.844C127.235 330.812 127.255 330.786 127.279 330.771C127.525 330.593 129.687 329.103 130.329 329.6C130.391 329.646 130.442 329.714 130.478 329.796C130.514 329.878 130.534 329.972 130.535 330.068C130.548 330.224 130.532 330.383 130.489 330.528C130.446 330.674 130.377 330.802 130.288 330.902C129.904 331.247 129.447 331.405 128.989 331.352ZM127.737 330.846C128.914 331.117 129.789 331.042 130.124 330.649C130.182 330.58 130.226 330.493 130.254 330.395C130.281 330.297 130.291 330.191 130.282 330.087C130.284 330.049 130.278 330.011 130.264 329.978C130.251 329.945 130.231 329.918 130.206 329.9C129.858 329.637 128.626 330.265 127.737 330.846Z" fill="#407BFF"/>
<path d="M127.34 331.099C127.316 331.108 127.29 331.108 127.265 331.099C127.247 331.081 127.232 331.057 127.222 331.029C127.213 331.001 127.209 330.97 127.21 330.939C127.21 330.808 127.477 327.642 128.77 327.829C129.112 327.876 129.214 328.11 129.235 328.307C129.331 329.131 128.038 330.724 127.388 331.117L127.34 331.099ZM128.667 328.129C127.901 328.129 127.593 329.862 127.498 330.611C128.182 330.068 129.043 328.822 128.989 328.326C128.989 328.326 128.989 328.167 128.743 328.138L128.667 328.129Z" fill="#407BFF"/>
<path d="M121.615 159.849L120.336 162.2C120.24 162.388 120.391 162.641 120.637 162.706L143.106 168.664C143.298 168.664 143.476 168.664 143.503 168.467L144.016 165.901C144.016 165.732 143.9 165.526 143.688 165.47L121.991 159.718C121.925 159.694 121.856 159.693 121.79 159.716C121.725 159.739 121.664 159.785 121.615 159.849Z" fill="#FF7F50"/>
<path d="M124.132 163.933L123.551 163.774C123.435 163.774 123.359 163.643 123.38 163.549L124.064 160.224C124.064 160.13 124.201 160.074 124.31 160.102L124.891 160.261C125.008 160.261 125.09 160.393 125.069 160.486L124.385 163.812C124.358 163.933 124.249 163.933 124.132 163.933Z" fill="#263238"/>
<path d="M138.804 167.859L138.223 167.709C138.106 167.709 138.031 167.568 138.052 167.474L138.736 164.158C138.736 164.055 138.866 163.999 138.982 164.037L139.563 164.186C139.673 164.186 139.755 164.327 139.734 164.421L139.05 167.737C139.03 167.84 138.92 167.896 138.804 167.859Z" fill="#263238"/>
</svg>
