<svg width="40" height="31" viewBox="0 0 40 31" fill="none" xmlns="http://www.w3.org/2000/svg">
<g clip-path="url(#clip0_372_153)">
<path d="M35.9383 4.81215C37.29 4.67061 38.5619 4.226 40 3.79215C39.627 4.45061 39.215 4.89061 38.8095 5.326C38.1125 6.07677 37.3649 6.786 36.5083 7.37369C36.1549 7.61523 36.0392 7.87061 36.0441 8.27831C36.1158 13.6537 34.3699 18.4737 30.888 22.6983C26.981 27.4414 21.8037 30.1183 15.4847 30.826C10.239 31.4137 5.31086 30.506 0.714955 28.0306C0.472293 27.8998 0.236147 27.7583 0 27.5768C4.3793 27.8783 8.33842 26.8737 11.9653 24.3014C11.1298 24.1768 10.4133 24.1075 9.73087 23.8952C7.27658 23.1306 5.53886 21.6245 4.49819 19.3937C4.33044 19.0322 4.23435 18.8106 4.86788 18.8968C5.83038 19.0275 6.80428 18.986 7.8987 18.6906C7.1984 18.4645 6.61211 18.3137 6.07304 18.0506C3.2572 16.6675 1.68234 14.5014 1.41199 11.4998C1.36965 11.0322 1.50645 10.9875 1.93477 11.1814C2.85493 11.5998 3.83535 11.8291 4.96397 11.8675C1.35011 8.94754 0.49998 5.51984 2.51944 1.39369C3.34351 2.29677 4.10895 3.08292 4.94768 3.79984C8.55177 6.88754 12.7568 8.77061 17.5823 9.40292C18.084 9.46907 18.5953 9.48292 19.0921 9.57369C19.6002 9.666 19.6279 9.45061 19.5676 9.07369C19.2207 6.90292 19.724 4.91984 21.0952 3.14754C23.9697 -0.56631 29.8017 -1.08631 33.3341 2.07677C33.7071 2.41061 34.0296 2.44138 34.4628 2.33677C36.0034 1.96446 37.4708 1.42138 39.0114 0.59369C38.3372 2.40292 37.2656 3.72138 35.7038 4.69215C35.6956 4.85369 35.7103 4.86138 35.9399 4.81061L35.9383 4.81215Z" fill="white"/>
</g>
<defs>
<clipPath id="clip0_372_153">
<rect width="40" height="31" fill="white"/>
</clipPath>
</defs>
</svg>
